<?xml version="1.0" encoding="utf-8"?>
<!-- Generator: Adobe Illustrator 26.0.3, SVG Export Plug-In . SVG Version: 6.00 Build 0)  -->
<svg version="1.1" id="Layer_1" xmlns="http://www.w3.org/2000/svg" xmlns:xlink="http://www.w3.org/1999/xlink" x="0px" y="0px"
	 viewBox="0 0 2800 1000" style="enable-background:new 0 0 2800 1000;" xml:space="preserve">
<g>
	<path d="M2300.5,77.2c233.2,0,423,189.8,423,423c0,74.2-19.7,147.3-57,211.4c-9.6,16.5-13.8,45.9,20.7,147.5
		c5.1,15.1,10.4,29.8,15.4,43.1c-51.1-19.1-122.2-42.8-160.7-42.8c-12.3,0-22.1,2.2-29.9,6.8c-64.1,37.3-137.2,57-211.4,57h-1800
		c-233.2,0-423-189.8-423-423s189.8-423,423-423H2300.5 M2300.5,50.2h-1800c-247.5,0-450,202.5-450,450s202.5,450,450,450h1800
		c81.8,0,158.7-22.1,225-60.7c3.7-2.2,9.3-3.1,16.3-3.1c57.2,0,208.7,63.8,208.7,63.8s-80.5-191-60.7-225
		c38.6-66.3,60.7-143.2,60.7-225C2750.5,252.7,2548,50.2,2300.5,50.2L2300.5,50.2z"/>
	<g>
		<path d="M742.8,734h-30.2l-59.1-144.5H417.7L358.6,734h-29.6l190.4-467.6H551L742.8,734z M480.8,434.6l-53.2,130H643l-53.2-130
			c-7.5-17.9-25.6-64.1-54.5-138.6C506.4,370.5,488.2,416.6,480.8,434.6z"/>
		<path d="M937.2,391.2c10.1,0,16.9,0.2,20.4,0.7v25.6c-3.1-0.4-9.2-0.7-18.4-0.7c-39,0-69.2,11.6-90.6,34.8
			c-21.5,23.2-32.2,54.7-32.2,94.6V734h-26.9V395.2H815v79.5c9.2-25.4,24.3-45.6,45.3-60.7C881.4,398.8,907,391.2,937.2,391.2z"/>
		<path d="M1151.2,395.2v23.6h-84.7v245.6c0,16.2,4.3,28.1,12.8,35.8c8.5,7.7,22.2,11.5,41,11.5c16.6,0,26.9-0.2,30.9-0.7v23
			c-20.1,0.9-31.5,1.3-34.1,1.3c-51.7,0-77.5-23-77.5-68.9V418.8h-58.4v-23.6h58.4v-95.9h26.9v95.9H1151.2z"/>
		<path d="M1415.9,526.5v-25.6h192.4V734h-27.6l-0.7-104.4c-14.4,36.8-36.6,65.1-66.3,85c-29.8,19.9-66.1,29.9-109,29.9
			c-65.2,0-117.1-22.5-155.6-67.6c-39-45.5-58.4-104.4-58.4-176.6c0-72.7,19-131.8,57.1-177.3c38.1-44.7,90.2-67,156.3-67
			c54.3,0,98.9,14.9,134,44.7c34.1,29.8,55.6,69.6,64.4,119.5h-29.5c-7.5-42-26.3-75.6-56.5-100.8c-30.2-25.2-67.6-37.8-112.3-37.8
			c-57.4,0-102.4,19.9-135.3,59.8c-32.8,40.3-49.3,93.2-49.3,158.9c0,65.2,16.9,118,50.6,158.3c33.7,40.3,78.6,60.4,134.6,60.4
			c54.3,0,97.2-17.9,128.7-53.9c31.1-36.3,46.6-82.5,46.6-138.6H1415.9z"/>
		<path d="M1960.3,712.4c1.3,0,4-0.1,8.2-0.3c4.2-0.2,6.7-0.3,7.5-0.3V734c-9.6,0.9-16.4,1.3-20.4,1.3c-17.1,0-29.6-4.2-37.4-12.5
			c-7.9-8.3-11.8-21.4-11.8-39.4V667c-23.2,49.9-67,74.9-131.3,74.9c-35,0-62.3-8.6-81.8-25.9c-19.5-17.3-29.2-40.6-29.2-69.9
			c0-56.9,39.4-90.4,118.2-100.5l54.5-6.6c26.3-3.5,44.3-9.7,54.2-18.7c9.8-9,14.8-22.9,14.8-41.7c0-45.1-31.5-67.6-94.6-67.6
			c-36.8,0-63.4,6.6-79.8,19.7c-16.4,13.1-25.3,34.6-26.6,64.4h-26.3c0.9-35.9,12-62.8,33.5-80.8c21.4-17.9,54.5-26.9,99.2-26.9
			c39.8,0,69.9,8.1,90.3,24.3c20.4,16.2,30.5,38.5,30.5,67v203.6C1932,702.3,1941.4,712.4,1960.3,712.4z M1776.4,718.9
			c39,0,70.3-10.7,93.9-32.2c23.6-21.4,35.5-52.3,35.5-92.6v-59.1c-11.4,12.7-33.1,21.2-65,25.6l-54.5,7.2
			c-32.8,4.4-56.8,12.7-71.9,25c-15.1,12.3-22.6,29.8-22.6,52.5c0,22.8,7.3,40.7,22,53.8C1728.3,712.4,1749.2,718.9,1776.4,718.9z"
			/>
		<path d="M2144.1,395.2v23.6h-84.7v245.6c0,16.2,4.3,28.1,12.8,35.8c8.5,7.7,22.2,11.5,41,11.5c16.6,0,26.9-0.2,30.9-0.7v23
			c-20.1,0.9-31.5,1.3-34.1,1.3c-51.7,0-77.5-23-77.5-68.9V418.8h-58.4v-23.6h58.4v-95.9h26.9v95.9H2144.1z"/>
		<path d="M2471.8,563.3v9.9h-271.2c1.3,45.1,12.9,80.3,34.8,105.7c21.9,25.4,51.9,38.1,90,38.1c29.8,0,54.5-8.4,74.2-25.3
			c19.7-16.9,32.4-39.9,38.1-69.3h27.6c-6.6,36.3-22.3,65.3-47.3,87c-25,21.7-56,32.5-93.2,32.5c-46.8,0-83.8-16.2-111-48.6
			c-27.1-32.4-40.7-75.3-40.7-128.7c0-53.8,13.4-96.7,40.1-128.7c26.3-32.4,62.8-48.6,109.7-48.6c47.3,0,84.1,16.4,110.3,49.2
			C2458.9,470.3,2471.8,512.5,2471.8,563.3z M2322.8,412.3c-36.3,0-65.1,12-86.3,36.1c-21.2,24.1-32.9,57.4-35.1,99.8h242.3
			c-2.2-41.6-13.9-74.6-35.1-99.2C2387.2,424.5,2358.7,412.3,2322.8,412.3z"/>
	</g>
</g>
</svg>
