<?xml version="1.0" encoding="UTF-8"?>
<svg xmlns="http://www.w3.org/2000/svg" xmlns:xlink="http://www.w3.org/1999/xlink" viewBox="-5 445 140 50" version="1.1">
<g id="surface1">
<path style=" stroke:rgb(0,0,0);fill-rule:nonzero;fill:rgb(30,150,30);fill-opacity:0;" d="M 115.023438 3.859375 C 126.683594 3.859375 136.175781 13.351562 136.175781 25.011719 C 136.175781 28.71875 135.191406 32.375 133.324219 35.578125 C 132.84375 36.40625 132.636719 37.875 134.359375 42.953125 C 134.613281 43.710938 134.878906 44.445312 135.128906 45.109375 C 132.574219 44.15625 129.019531 42.96875 127.09375 42.96875 C 126.480469 42.96875 125.988281 43.078125 125.601562 43.308594 C 122.394531 45.175781 118.738281 46.160156 115.03125 46.160156 L 25.03125 46.160156 C 13.371094 46.160156 3.878906 36.671875 3.878906 25.011719 C 3.878906 13.351562 13.371094 3.859375 25.03125 3.859375 L 115.023438 3.859375 M 115.023438 2.511719 L 25.023438 2.511719 C 12.648438 2.511719 2.523438 12.636719 2.523438 25.011719 C 2.523438 37.386719 12.648438 47.511719 25.023438 47.511719 L 115.023438 47.511719 C 119.113281 47.511719 122.960938 46.40625 126.273438 44.476562 C 126.460938 44.363281 126.738281 44.320312 127.089844 44.320312 C 129.949219 44.320312 137.523438 47.511719 137.523438 47.511719 C 137.523438 47.511719 133.5 37.960938 134.488281 36.261719 C 136.421875 32.945312 137.523438 29.101562 137.523438 25.011719 C 137.523438 12.636719 127.398438 2.511719 115.023438 2.511719 Z M 115.023438 2.511719 "/>
<path style=" stroke:rgb(0,0,0);fill-rule:nonzero;fill:rgb(30,150,30);fill-opacity:0;" d="M 37.140625 36.699219 L 35.628906 36.699219 L 32.675781 29.476562 L 20.886719 29.476562 L 17.929688 36.699219 L 16.449219 36.699219 L 25.96875 13.320312 L 27.550781 13.320312 Z M 24.039062 21.730469 L 21.378906 28.230469 L 32.148438 28.230469 L 29.488281 21.730469 C 29.113281 20.835938 28.210938 18.523438 26.765625 14.800781 C 25.320312 18.523438 24.410156 20.828125 24.039062 21.730469 Z M 24.039062 21.730469 "/>
<path style=" stroke:rgb(0,0,0);fill-rule:nonzero;fill:rgb(30,150,30);fill-opacity:0;" d="M 46.859375 19.558594 C 47.363281 19.558594 47.703125 19.570312 47.878906 19.59375 L 47.878906 20.875 C 47.726562 20.855469 47.421875 20.839844 46.960938 20.839844 C 45.011719 20.839844 43.5 21.421875 42.429688 22.578125 C 41.355469 23.738281 40.820312 25.316406 40.820312 27.308594 L 40.820312 36.699219 L 39.476562 36.699219 L 39.476562 19.761719 L 40.75 19.761719 L 40.75 23.734375 C 41.210938 22.464844 41.964844 21.453125 43.015625 20.699219 C 44.070312 19.941406 45.351562 19.558594 46.859375 19.558594 Z M 46.859375 19.558594 "/>
<path style=" stroke:rgb(0,0,0);fill-rule:nonzero;fill:rgb(30,150,30);fill-opacity:0;" d="M 57.558594 19.761719 L 57.558594 20.941406 L 53.324219 20.941406 L 53.324219 33.21875 C 53.324219 34.03125 53.539062 34.625 53.964844 35.011719 C 54.390625 35.394531 55.074219 35.585938 56.015625 35.585938 C 56.84375 35.585938 57.359375 35.574219 57.558594 35.550781 L 57.558594 36.699219 C 56.554688 36.746094 55.984375 36.765625 55.855469 36.765625 C 53.269531 36.765625 51.980469 35.613281 51.980469 33.320312 L 51.980469 20.941406 L 49.058594 20.941406 L 49.058594 19.761719 L 51.980469 19.761719 L 51.980469 14.964844 L 53.324219 14.964844 L 53.324219 19.761719 Z M 57.558594 19.761719 "/>
<path style=" stroke:rgb(0,0,0);fill-rule:nonzero;fill:rgb(30,150,30);fill-opacity:0;" d="M 70.796875 26.324219 L 70.796875 25.046875 L 80.414062 25.046875 L 80.414062 36.699219 L 79.035156 36.699219 L 79 31.480469 C 78.28125 33.320312 77.171875 34.734375 75.683594 35.730469 C 74.195312 36.726562 72.378906 37.226562 70.234375 37.226562 C 66.976562 37.226562 64.378906 36.101562 62.453125 33.84375 C 60.503906 31.570312 59.535156 28.625 59.535156 25.015625 C 59.535156 21.378906 60.484375 18.425781 62.390625 16.148438 C 64.296875 13.914062 66.898438 12.800781 70.203125 12.800781 C 72.921875 12.800781 75.148438 13.546875 76.90625 15.035156 C 78.609375 16.523438 79.683594 18.515625 80.125 21.011719 L 78.648438 21.011719 C 78.273438 18.910156 77.335938 17.230469 75.824219 15.96875 C 74.316406 14.710938 72.445312 14.078125 70.210938 14.078125 C 67.339844 14.078125 65.089844 15.074219 63.445312 17.070312 C 61.804688 19.085938 60.980469 21.730469 60.980469 25.015625 C 60.980469 28.273438 61.824219 30.914062 63.511719 32.929688 C 65.195312 34.945312 67.441406 35.949219 70.238281 35.949219 C 72.953125 35.949219 75.101562 35.054688 76.675781 33.253906 C 78.230469 31.441406 79.003906 29.128906 79.003906 26.324219 Z M 70.796875 26.324219 "/>
<path style=" stroke:rgb(0,0,0);fill-rule:nonzero;fill:rgb(30,150,30);fill-opacity:0;" d="M 98.015625 35.621094 C 98.078125 35.621094 98.214844 35.613281 98.425781 35.605469 C 98.636719 35.59375 98.761719 35.589844 98.800781 35.589844 L 98.800781 36.699219 C 98.320312 36.746094 97.980469 36.765625 97.78125 36.765625 C 96.925781 36.765625 96.300781 36.554688 95.910156 36.140625 C 95.515625 35.726562 95.320312 35.070312 95.320312 34.171875 L 95.320312 33.351562 C 94.160156 35.84375 91.96875 37.09375 88.753906 37.09375 C 87.003906 37.09375 85.640625 36.664062 84.664062 35.800781 C 83.691406 34.933594 83.203125 33.769531 83.203125 32.304688 C 83.203125 29.460938 85.175781 27.785156 89.113281 27.28125 L 91.839844 26.949219 C 93.15625 26.773438 94.054688 26.464844 94.550781 26.015625 C 95.039062 25.566406 95.289062 24.871094 95.289062 23.929688 C 95.289062 21.675781 93.714844 20.550781 90.558594 20.550781 C 88.71875 20.550781 87.390625 20.878906 86.570312 21.535156 C 85.75 22.191406 85.304688 23.265625 85.238281 24.753906 L 83.925781 24.753906 C 83.96875 22.960938 84.523438 21.613281 85.601562 20.714844 C 86.671875 19.820312 88.324219 19.371094 90.558594 19.371094 C 92.550781 19.371094 94.054688 19.773438 95.074219 20.585938 C 96.09375 21.394531 96.601562 22.511719 96.601562 23.933594 L 96.601562 34.113281 C 96.601562 35.113281 97.070312 35.621094 98.015625 35.621094 Z M 88.820312 35.945312 C 90.769531 35.945312 92.335938 35.410156 93.515625 34.335938 C 94.695312 33.265625 95.289062 31.71875 95.289062 29.703125 L 95.289062 26.75 C 94.71875 27.386719 93.636719 27.808594 92.039062 28.03125 L 89.316406 28.390625 C 87.675781 28.609375 86.476562 29.023438 85.71875 29.640625 C 84.964844 30.253906 84.589844 31.128906 84.589844 32.265625 C 84.589844 33.40625 84.953125 34.300781 85.691406 34.953125 C 86.414062 35.621094 87.460938 35.945312 88.820312 35.945312 Z M 88.820312 35.945312 "/>
<path style=" stroke:rgb(0,0,0);fill-rule:nonzero;fill:rgb(30,150,30);fill-opacity:0;" d="M 107.203125 19.761719 L 107.203125 20.941406 L 102.96875 20.941406 L 102.96875 33.21875 C 102.96875 34.03125 103.183594 34.625 103.609375 35.011719 C 104.035156 35.394531 104.71875 35.585938 105.660156 35.585938 C 106.488281 35.585938 107.003906 35.574219 107.203125 35.550781 L 107.203125 36.699219 C 106.199219 36.746094 105.628906 36.765625 105.5 36.765625 C 102.914062 36.765625 101.625 35.613281 101.625 33.320312 L 101.625 20.941406 L 98.703125 20.941406 L 98.703125 19.761719 L 101.625 19.761719 L 101.625 14.964844 L 102.96875 14.964844 L 102.96875 19.761719 Z M 107.203125 19.761719 "/>
<path style=" stroke:rgb(0,0,0);fill-rule:nonzero;fill:rgb(30,150,30);fill-opacity:0;" d="M 123.589844 28.164062 L 123.589844 28.660156 L 110.03125 28.660156 C 110.09375 30.914062 110.675781 32.675781 111.769531 33.945312 C 112.863281 35.214844 114.363281 35.851562 116.269531 35.851562 C 117.761719 35.851562 118.996094 35.429688 119.980469 34.585938 C 120.964844 33.738281 121.601562 32.589844 121.886719 31.121094 L 123.265625 31.121094 C 122.933594 32.933594 122.148438 34.386719 120.898438 35.46875 C 119.648438 36.554688 118.101562 37.09375 116.238281 37.09375 C 113.898438 37.09375 112.050781 36.285156 110.691406 34.664062 C 109.335938 33.046875 108.65625 30.898438 108.65625 28.230469 C 108.65625 25.539062 109.324219 23.394531 110.660156 21.796875 C 111.976562 20.175781 113.800781 19.363281 116.144531 19.363281 C 118.511719 19.363281 120.351562 20.183594 121.660156 21.824219 C 122.945312 23.515625 123.589844 25.625 123.589844 28.164062 Z M 116.140625 20.613281 C 114.324219 20.613281 112.886719 21.214844 111.824219 22.421875 C 110.765625 23.625 110.179688 25.289062 110.070312 27.410156 L 122.183594 27.410156 C 122.074219 25.328125 121.488281 23.679688 120.429688 22.449219 C 119.359375 21.226562 117.933594 20.613281 116.140625 20.613281 Z M 116.140625 20.613281 "/>
</g>
</svg>
