<?xml version="1.0" encoding="UTF-8"?>
<svg xmlns="http://www.w3.org/2000/svg" xmlns:xlink="http://www.w3.org/1999/xlink" viewBox="-5 460 98 35" version="1.1">
<g id="surface1">
<path style="stroke:rgb(60,60,60);stroke-width:1;stroke-opacity:1;fill-rule:nonzero;fill:rgb(0,0,0);fill-opacity:0;" d="M 80.515625 2.703125 C 88.679688 2.703125 95.324219 9.34375 95.324219 17.507812 C 95.324219 20.105469 94.632812 22.664062 93.328125 24.90625 C 92.992188 25.484375 92.84375 26.511719 94.050781 30.070312 C 94.230469 30.597656 94.414062 31.113281 94.589844 31.578125 C 92.800781 30.910156 90.3125 30.078125 88.964844 30.078125 C 88.535156 30.078125 88.191406 30.15625 87.921875 30.316406 C 85.675781 31.621094 83.117188 32.3125 80.519531 32.3125 L 17.519531 32.3125 C 9.359375 32.3125 2.714844 25.667969 2.714844 17.507812 C 2.714844 9.34375 9.359375 2.703125 17.519531 2.703125 L 80.515625 2.703125 M 80.515625 1.757812 L 17.515625 1.757812 C 8.855469 1.757812 1.765625 8.84375 1.765625 17.507812 C 1.765625 26.167969 8.855469 33.257812 17.515625 33.257812 L 80.515625 33.257812 C 83.378906 33.257812 86.070312 32.484375 88.390625 31.132812 C 88.523438 31.054688 88.71875 31.023438 88.964844 31.023438 C 90.964844 31.023438 96.265625 33.257812 96.265625 33.257812 C 96.265625 33.257812 93.449219 26.570312 94.144531 25.382812 C 95.492188 23.0625 96.265625 20.371094 96.265625 17.507812 C 96.265625 8.84375 89.179688 1.757812 80.515625 1.757812 Z M 80.515625 1.757812"/>
<path style="stroke:rgb(60,60,60);stroke-width:1;stroke-opacity:1;fill-rule:nonzero;fill:rgb(0,0,0);fill-opacity:0;" d="M 25.996094 25.691406 L 24.941406 25.691406 L 22.871094 20.632812 L 14.621094 20.632812 L 12.550781 25.691406 L 11.515625 25.691406 L 18.179688 9.324219 L 19.285156 9.324219 Z M 16.828125 15.210938 L 14.964844 19.761719 L 22.503906 19.761719 L 20.644531 15.210938 C 20.378906 14.585938 19.746094 12.96875 18.734375 10.359375 C 17.722656 12.96875 17.085938 14.582031 16.828125 15.210938 Z M 16.828125 15.210938"/>
<path style="stroke:rgb(60,60,60);stroke-width:1;stroke-opacity:1;fill-rule:nonzero;fill:rgb(0,0,0);fill-opacity:0;" d="M 32.800781 13.691406 C 33.15625 13.691406 33.394531 13.699219 33.515625 13.714844 L 33.515625 14.613281 C 33.40625 14.597656 33.195312 14.589844 32.871094 14.589844 C 31.507812 14.589844 30.449219 14.992188 29.699219 15.804688 C 28.949219 16.617188 28.574219 17.71875 28.574219 19.117188 L 28.574219 25.691406 L 27.632812 25.691406 L 27.632812 13.832031 L 28.523438 13.832031 L 28.523438 16.613281 C 28.847656 15.726562 29.375 15.019531 30.109375 14.488281 C 30.847656 13.957031 31.746094 13.691406 32.800781 13.691406 Z M 32.800781 13.691406"/>
<path style="stroke:rgb(60,60,60);stroke-width:1;stroke-opacity:1;fill-rule:nonzero;fill:rgb(0,0,0);fill-opacity:0;" d="M 40.292969 13.832031 L 40.292969 14.65625 L 37.328125 14.65625 L 37.328125 23.253906 C 37.328125 23.820312 37.476562 24.238281 37.777344 24.507812 C 38.074219 24.777344 38.550781 24.910156 39.210938 24.910156 C 39.792969 24.910156 40.152344 24.902344 40.292969 24.886719 L 40.292969 25.691406 C 39.589844 25.722656 39.191406 25.734375 39.097656 25.734375 C 37.289062 25.734375 36.386719 24.929688 36.386719 23.324219 L 36.386719 14.65625 L 34.34375 14.65625 L 34.34375 13.832031 L 36.386719 13.832031 L 36.386719 10.476562 L 37.328125 10.476562 L 37.328125 13.832031 Z M 40.292969 13.832031"/>
<path style="stroke:rgb(60,60,60);stroke-width:1;stroke-opacity:1;fill-rule:nonzero;fill:rgb(0,0,0);fill-opacity:0;" d="M 49.554688 18.425781 L 49.554688 17.53125 L 56.289062 17.53125 L 56.289062 25.691406 L 55.324219 25.691406 L 55.300781 22.035156 C 54.796875 23.324219 54.019531 24.316406 52.980469 25.011719 C 51.9375 25.707031 50.664062 26.058594 49.164062 26.058594 C 46.882812 26.058594 45.066406 25.269531 43.71875 23.691406 C 42.351562 22.097656 41.675781 20.039062 41.675781 17.511719 C 41.675781 14.964844 42.339844 12.898438 43.671875 11.304688 C 45.007812 9.742188 46.828125 8.960938 49.144531 8.960938 C 51.042969 8.960938 52.605469 9.480469 53.832031 10.523438 C 55.027344 11.566406 55.78125 12.960938 56.085938 14.707031 L 55.054688 14.707031 C 54.792969 13.238281 54.132812 12.0625 53.078125 11.179688 C 52.019531 10.296875 50.710938 9.855469 49.148438 9.855469 C 47.136719 9.855469 45.5625 10.550781 44.410156 11.949219 C 43.261719 13.359375 42.6875 15.210938 42.6875 17.511719 C 42.6875 19.792969 43.277344 21.640625 44.457031 23.050781 C 45.636719 24.460938 47.207031 25.164062 49.167969 25.164062 C 51.070312 25.164062 52.570312 24.539062 53.671875 23.277344 C 54.761719 22.007812 55.304688 20.390625 55.304688 18.425781 Z M 49.554688 18.425781"/>
<path style="stroke:rgb(60,60,60);stroke-width:1;stroke-opacity:1;fill-rule:nonzero;fill:rgb(0,0,0);fill-opacity:0;" d="M 68.609375 24.933594 C 68.65625 24.933594 68.75 24.929688 68.898438 24.921875 C 69.042969 24.917969 69.132812 24.914062 69.160156 24.914062 L 69.160156 25.691406 C 68.824219 25.722656 68.585938 25.734375 68.445312 25.734375 C 67.847656 25.734375 67.410156 25.589844 67.136719 25.296875 C 66.859375 25.007812 66.722656 24.550781 66.722656 23.917969 L 66.722656 23.34375 C 65.910156 25.089844 64.378906 25.964844 62.128906 25.964844 C 60.902344 25.964844 59.949219 25.664062 59.265625 25.058594 C 58.582031 24.453125 58.242188 23.640625 58.242188 22.613281 C 58.242188 20.621094 59.621094 19.449219 62.378906 19.097656 L 64.289062 18.863281 C 65.207031 18.742188 65.839844 18.527344 66.183594 18.210938 C 66.527344 17.894531 66.703125 17.410156 66.703125 16.75 C 66.703125 15.171875 65.601562 14.386719 63.390625 14.386719 C 62.105469 14.386719 61.171875 14.617188 60.597656 15.074219 C 60.023438 15.53125 59.714844 16.285156 59.667969 17.328125 L 58.746094 17.328125 C 58.777344 16.070312 59.167969 15.128906 59.921875 14.5 C 60.667969 13.875 61.828125 13.558594 63.390625 13.558594 C 64.785156 13.558594 65.839844 13.84375 66.550781 14.410156 C 67.265625 14.976562 67.621094 15.757812 67.621094 16.753906 L 67.621094 23.878906 C 67.621094 24.582031 67.949219 24.933594 68.609375 24.933594 Z M 62.175781 25.160156 C 63.539062 25.160156 64.632812 24.785156 65.460938 24.035156 C 66.285156 23.285156 66.703125 22.203125 66.703125 20.792969 L 66.703125 18.726562 C 66.304688 19.167969 65.542969 19.46875 64.429688 19.621094 L 62.519531 19.871094 C 61.371094 20.027344 60.53125 20.316406 60.003906 20.746094 C 59.476562 21.179688 59.214844 21.789062 59.214844 22.585938 C 59.214844 23.382812 59.46875 24.011719 59.984375 24.46875 C 60.492188 24.933594 61.222656 25.160156 62.175781 25.160156 Z M 62.175781 25.160156"/>
<path style="stroke:rgb(60,60,60);stroke-width:1;stroke-opacity:1;fill-rule:nonzero;fill:rgb(0,0,0);fill-opacity:0;" d="M 75.042969 13.832031 L 75.042969 14.65625 L 72.078125 14.65625 L 72.078125 23.253906 C 72.078125 23.820312 72.230469 24.238281 72.527344 24.507812 C 72.824219 24.777344 73.304688 24.910156 73.960938 24.910156 C 74.542969 24.910156 74.902344 24.902344 75.042969 24.886719 L 75.042969 25.691406 C 74.339844 25.722656 73.941406 25.734375 73.851562 25.734375 C 72.039062 25.734375 71.136719 24.929688 71.136719 23.324219 L 71.136719 14.65625 L 69.09375 14.65625 L 69.09375 13.832031 L 71.136719 13.832031 L 71.136719 10.476562 L 72.078125 10.476562 L 72.078125 13.832031 Z M 75.042969 13.832031"/>
<path style="stroke:rgb(60,60,60);stroke-width:1;stroke-opacity:1;fill-rule:nonzero;fill:rgb(0,0,0);fill-opacity:0;" d="M 86.511719 19.714844 L 86.511719 20.0625 L 77.019531 20.0625 C 77.066406 21.640625 77.472656 22.871094 78.238281 23.761719 C 79.003906 24.652344 80.054688 25.09375 81.390625 25.09375 C 82.433594 25.09375 83.296875 24.800781 83.984375 24.210938 C 84.675781 23.617188 85.121094 22.8125 85.320312 21.785156 L 86.285156 21.785156 C 86.054688 23.054688 85.503906 24.070312 84.628906 24.828125 C 83.753906 25.589844 82.671875 25.964844 81.367188 25.964844 C 79.730469 25.964844 78.433594 25.398438 77.484375 24.265625 C 76.535156 23.132812 76.058594 21.628906 76.058594 19.761719 C 76.058594 17.878906 76.527344 16.375 77.460938 15.257812 C 78.382812 14.121094 79.660156 13.554688 81.300781 13.554688 C 82.957031 13.554688 84.246094 14.128906 85.160156 15.277344 C 86.0625 16.460938 86.511719 17.9375 86.511719 19.714844 Z M 81.296875 14.429688 C 80.027344 14.429688 79.019531 14.851562 78.277344 15.695312 C 77.535156 16.539062 77.125 17.703125 77.050781 19.1875 L 85.53125 19.1875 C 85.453125 17.730469 85.042969 16.574219 84.300781 15.714844 C 83.550781 14.859375 82.554688 14.429688 81.296875 14.429688 Z M 81.296875 14.429688"/>
</g>
</svg>
